<svg id="visual" viewBox="0 0 960 540" width="960" height="540" xmlns="http://www.w3.org/2000/svg" xmlns:xlink="http://www.w3.org/1999/xlink" version="1.1"><rect x="0" y="0" width="960" height="540" fill="#1E1E1E"></rect><path d="M0 131L20 146.5C40 162 80 193 120 207.7C160 222.3 200 220.7 240 213.8C280 207 320 195 360 180.7C400 166.3 440 149.7 480 144C520 138.3 560 143.7 600 146.8C640 150 680 151 720 169.8C760 188.7 800 225.3 840 222.5C880 219.7 920 177.3 940 156.2L960 135L960 541L940 541C920 541 880 541 840 541C800 541 760 541 720 541C680 541 640 541 600 541C560 541 520 541 480 541C440 541 400 541 360 541C320 541 280 541 240 541C200 541 160 541 120 541C80 541 40 541 20 541L0 541Z" fill="#1fa1ca"></path><path d="M0 249L20 248.2C40 247.3 80 245.7 120 246.5C160 247.3 200 250.7 240 247.7C280 244.7 320 235.3 360 240.2C400 245 440 264 480 277.5C520 291 560 299 600 282C640 265 680 223 720 215.5C760 208 800 235 840 239.5C880 244 920 226 940 217L960 208L960 541L940 541C920 541 880 541 840 541C800 541 760 541 720 541C680 541 640 541 600 541C560 541 520 541 480 541C440 541 400 541 360 541C320 541 280 541 240 541C200 541 160 541 120 541C80 541 40 541 20 541L0 541Z" fill="#1faed4"></path><path d="M0 312L20 303C40 294 80 276 120 276.2C160 276.3 200 294.7 240 293.2C280 291.7 320 270.3 360 271.7C400 273 440 297 480 295.8C520 294.7 560 268.3 600 267.3C640 266.3 680 290.7 720 301C760 311.3 800 307.7 840 312C880 316.3 920 328.7 940 334.8L960 341L960 541L940 541C920 541 880 541 840 541C800 541 760 541 720 541C680 541 640 541 600 541C560 541 520 541 480 541C440 541 400 541 360 541C320 541 280 541 240 541C200 541 160 541 120 541C80 541 40 541 20 541L0 541Z" fill="#23bcdd"></path><path d="M0 306L20 312.5C40 319 80 332 120 330.7C160 329.3 200 313.7 240 311.7C280 309.7 320 321.3 360 317.5C400 313.7 440 294.3 480 290.3C520 286.3 560 297.7 600 311.2C640 324.7 680 340.3 720 347C760 353.7 800 351.3 840 337.3C880 323.3 920 297.7 940 284.8L960 272L960 541L940 541C920 541 880 541 840 541C800 541 760 541 720 541C680 541 640 541 600 541C560 541 520 541 480 541C440 541 400 541 360 541C320 541 280 541 240 541C200 541 160 541 120 541C80 541 40 541 20 541L0 541Z" fill="#2bc9e5"></path><path d="M0 396L20 387.7C40 379.3 80 362.7 120 355.7C160 348.7 200 351.3 240 358.8C280 366.3 320 378.7 360 387.7C400 396.7 440 402.3 480 394.3C520 386.3 560 364.7 600 349.7C640 334.7 680 326.3 720 330.3C760 334.3 800 350.7 840 358.5C880 366.3 920 365.7 940 365.3L960 365L960 541L940 541C920 541 880 541 840 541C800 541 760 541 720 541C680 541 640 541 600 541C560 541 520 541 480 541C440 541 400 541 360 541C320 541 280 541 240 541C200 541 160 541 120 541C80 541 40 541 20 541L0 541Z" fill="#36d7ed"></path><path d="M0 434L20 426.7C40 419.3 80 404.7 120 405C160 405.3 200 420.7 240 419.2C280 417.7 320 399.3 360 399.2C400 399 440 417 480 416.5C520 416 560 397 600 390C640 383 680 388 720 390.3C760 392.7 800 392.3 840 393.3C880 394.3 920 396.7 940 397.8L960 399L960 541L940 541C920 541 880 541 840 541C800 541 760 541 720 541C680 541 640 541 600 541C560 541 520 541 480 541C440 541 400 541 360 541C320 541 280 541 240 541C200 541 160 541 120 541C80 541 40 541 20 541L0 541Z" fill="#43e4f3"></path><path d="M0 429L20 428C40 427 80 425 120 425.2C160 425.3 200 427.7 240 430.7C280 433.7 320 437.3 360 443.2C400 449 440 457 480 455.7C520 454.3 560 443.7 600 438C640 432.3 680 431.7 720 433.7C760 435.7 800 440.3 840 447.8C880 455.3 920 465.7 940 470.8L960 476L960 541L940 541C920 541 880 541 840 541C800 541 760 541 720 541C680 541 640 541 600 541C560 541 520 541 480 541C440 541 400 541 360 541C320 541 280 541 240 541C200 541 160 541 120 541C80 541 40 541 20 541L0 541Z" fill="#51f2fa"></path><path d="M0 474L20 478.8C40 483.7 80 493.3 120 495.8C160 498.3 200 493.7 240 487C280 480.3 320 471.7 360 473.7C400 475.7 440 488.3 480 493.8C520 499.3 560 497.7 600 493.3C640 489 680 482 720 478.2C760 474.3 800 473.7 840 477.3C880 481 920 489 940 493L960 497L960 541L940 541C920 541 880 541 840 541C800 541 760 541 720 541C680 541 640 541 600 541C560 541 520 541 480 541C440 541 400 541 360 541C320 541 280 541 240 541C200 541 160 541 120 541C80 541 40 541 20 541L0 541Z" fill="#61ffff"></path></svg>