<svg id="visual" viewBox="0 0 900 600" width="900" height="600" xmlns="http://www.w3.org/2000/svg" xmlns:xlink="http://www.w3.org/1999/xlink" version="1.1"><rect x="0" y="0" width="900" height="600" fill="#1f1f1f"></rect><defs><linearGradient id="grad1_0" x1="33.3%" y1="0%" x2="100%" y2="100%"><stop offset="20%" stop-color="#1f1f1f" stop-opacity="1"></stop><stop offset="80%" stop-color="#1f1f1f" stop-opacity="1"></stop></linearGradient></defs><defs><linearGradient id="grad2_0" x1="0%" y1="0%" x2="66.7%" y2="100%"><stop offset="20%" stop-color="#1f1f1f" stop-opacity="1"></stop><stop offset="80%" stop-color="#1f1f1f" stop-opacity="1"></stop></linearGradient></defs><g transform="translate(900, 0)"><path d="M0 324.5C-36.2 306.6 -72.4 288.6 -114.4 276.2C-156.4 263.9 -204.1 257.1 -229.5 229.5C-254.8 201.9 -257.7 153.5 -269.8 111.7C-281.9 70 -303.2 35 -324.5 0L0 0Z" fill="#16cd48"></path></g><g transform="translate(0, 600)"><path d="M0 -324.5C41.3 -319.3 82.5 -314.1 124.2 -299.8C165.8 -285.5 207.8 -262 227 -227C246.2 -192 242.5 -145.4 255 -105.6C267.4 -65.9 296 -32.9 324.5 0L0 0Z" fill="#16cd48"></path></g></svg>